<svg xmlns="http://www.w3.org/2000/svg" xmlns:xlink="http://www.w3.org/1999/xlink" version="1.1" width="1000" height="1000" viewBox="0 0 1000 1000" xml:space="preserve">
<desc>Created with Fabric.js 3.5.0</desc>
<defs>
</defs>
<rect x="0" y="0" width="100%" height="100%" fill="#ffffff"/>
<g transform="matrix(1 0 0 1 502.9638 500)" style="" id="850435">
		
<path xml:space="preserve" font-family="Audiowide" font-size="60" font-style="normal" font-weight="normal" style="stroke: none; stroke-width: 1; stroke-dasharray: none; stroke-linecap: butt; stroke-dashoffset: 0; stroke-linejoin: miter; stroke-miterlimit: 4; is-custom-font: none; font-file-url: none; fill: rgb(0,0,0); fill-rule: nonzero; opacity: 1; white-space: pre;" d="M-443.17-19.91L-443.17 18.85L-450.85 18.85L-450.85-6.17L-464.36 17.59Q-464.85 18.50-465.75 18.97Q-466.64 19.43-467.67 19.43L-467.67 19.43Q-468.66 19.43-469.53 18.97Q-470.39 18.50-470.89 17.59L-470.89 17.59L-484.45-6.17L-484.45 18.85L-492.07 18.85L-492.07-19.91Q-492.07-21.23-491.29-22.26Q-490.52-23.28-489.26-23.63L-489.26-23.63Q-488.64-23.78-488.03-23.73Q-487.41-23.69-486.84-23.47Q-486.27-23.25-485.80-22.86Q-485.33-22.46-485.01-21.90L-485.01-21.90L-467.67 8.24L-450.32-21.90Q-449.65-23.02-448.46-23.49Q-447.28-23.95-445.99-23.63L-445.99-23.63Q-444.76-23.28-443.96-22.26Q-443.17-21.23-443.17-19.91L-443.17-19.91ZM-402.63-2.33L-402.63 8.36Q-402.63 9.94-403.18 11.77Q-403.74 13.60-404.99 15.17Q-406.23 16.74-408.24 17.79Q-410.24 18.85-413.12 18.85L-413.12 18.85L-426.86 18.85Q-428.44 18.85-430.27 18.29Q-432.10 17.74-433.67 16.49Q-435.23 15.24-436.29 13.24Q-437.34 11.23-437.34 8.36L-437.34 8.36Q-437.34 6.78-436.79 4.93Q-436.23 3.09-434.99 1.52Q-433.74-0.05-431.73-1.10Q-429.73-2.16-426.86-2.16L-426.86-2.16L-413.12-2.16L-413.12 5.11L-426.86 5.11Q-428.41 5.11-429.26 6.06Q-430.11 7.01-430.11 8.42L-430.11 8.42Q-430.11 9.91-429.13 10.75Q-428.14 11.58-426.80 11.58L-426.80 11.58L-413.12 11.58Q-411.56 11.58-410.71 10.65Q-409.86 9.71-409.86 8.30L-409.86 8.30L-409.86-2.33Q-409.86-3.83-410.79-4.71Q-411.71-5.59-413.12-5.59L-413.12-5.59L-429.84-5.59L-429.84-12.82L-413.12-12.82Q-411.53-12.82-409.70-12.26Q-407.87-11.71-406.30-10.46Q-404.74-9.22-403.68-7.21Q-402.63-5.20-402.63-2.33L-402.63-2.33ZM-376.85 1.56L-358.92 18.85L-369.90 18.85L-385.25 4.02Q-386.54 2.85-386.46 1.09L-386.46 1.09Q-386.40 0.27-386.03-0.44Q-385.66-1.16-385.02-1.66L-385.02-1.66L-371.10-12.88L-358.92-12.88L-376.85 1.56ZM-388.39-26.21L-388.39 18.85L-396.01 18.85L-396.01-26.21L-388.39-26.21ZM-324.02 8.16L-324.02 8.16Q-324.02 10.12-324.52 11.69Q-325.02 13.25-325.84 14.44Q-326.66 15.63-327.74 16.46Q-328.83 17.30-330.01 17.82Q-331.20 18.35-332.42 18.60Q-333.63 18.85-334.72 18.85L-334.72 18.85L-355.34 18.85L-355.34 11.23L-334.78 11.23Q-333.22 11.23-332.43 10.44Q-331.64 9.65-331.64 8.16L-331.64 8.16Q-331.79 5.11-334.72 5.11L-334.72 5.11L-346.52 5.11Q-349.04 5.11-350.80 4.23Q-352.56 3.35-353.66 2.03Q-354.76 0.71-355.24-0.81Q-355.72-2.33-355.72-3.65L-355.72-3.65Q-355.72-6.20-354.81-7.94Q-353.91-9.69-352.53-10.77Q-351.15-11.85-349.54-12.34Q-347.93-12.82-346.52-12.82L-346.52-12.82L-327.80-12.82L-327.80-5.20L-346.46-5.20Q-347.05-5.20-347.39-5.07Q-347.72-4.94-347.89-4.72Q-348.05-4.50-348.08-4.25Q-348.11-4.00-348.11-3.77L-348.11-3.77Q-348.08-3.30-347.93-3.04Q-347.78-2.77-347.56-2.66Q-347.34-2.54-347.07-2.52Q-346.79-2.51-346.52-2.51L-346.52-2.51L-334.72-2.51Q-331.79-2.51-329.74-1.45Q-327.69-0.40-326.43 1.20Q-325.17 2.79-324.59 4.67Q-324.02 6.54-324.02 8.16ZM-310.96-26.21L-310.96-19.33L-318.57-19.33L-318.57-26.21L-310.96-26.21ZM-310.96-12.82L-310.96 18.85L-318.57 18.85L-318.57-12.82L-310.96-12.82ZM-275.39-2.16L-275.39 18.85L-283.01 18.85L-283.01-2.16Q-283.01-3.65-283.80-4.43Q-284.59-5.20-286.14-5.20L-286.14-5.20L-296.04-5.20L-296.04 18.85L-303.66 18.85L-303.66-9.04Q-303.66-9.83-303.37-10.52Q-303.08-11.21-302.55-11.72Q-302.02-12.24-301.32-12.53Q-300.62-12.82-299.82-12.82L-299.82-12.82L-286.08-12.82Q-284.50-12.82-282.69-12.26Q-280.87-11.71-279.23-10.48L-279.23-10.48L-279.23-12.82L-268.92-12.82Q-267.83-12.82-266.63-12.57Q-265.43-12.32-264.24-11.80Q-263.06-11.27-261.97-10.43Q-260.89-9.60-260.07-8.41Q-259.25-7.23-258.75-5.67Q-258.25-4.12-258.25-2.16L-258.25-2.16L-258.25 18.85L-265.87 18.85L-265.87-2.16Q-265.87-3.65-266.62-4.43Q-267.36-5.20-268.92-5.20L-268.92-5.20L-275.77-5.20Q-275.39-3.80-275.39-2.16L-275.39-2.16ZM-220.63 8.16L-220.63 8.16Q-220.63 10.12-221.13 11.69Q-221.63 13.25-222.45 14.44Q-223.27 15.63-224.36 16.46Q-225.44 17.30-226.63 17.82Q-227.81 18.35-229.03 18.60Q-230.24 18.85-231.33 18.85L-231.33 18.85L-251.95 18.85L-251.95 11.23L-231.39 11.23Q-229.83 11.23-229.04 10.44Q-228.25 9.65-228.25 8.16L-228.25 8.16Q-228.40 5.11-231.33 5.11L-231.33 5.11L-243.13 5.11Q-245.65 5.11-247.41 4.23Q-249.17 3.35-250.27 2.03Q-251.37 0.71-251.85-0.81Q-252.33-2.33-252.33-3.65L-252.33-3.65Q-252.33-6.20-251.43-7.94Q-250.52-9.69-249.14-10.77Q-247.76-11.85-246.15-12.34Q-244.54-12.82-243.13-12.82L-243.13-12.82L-224.41-12.82L-224.41-5.20L-243.08-5.20Q-243.66-5.20-244.00-5.07Q-244.34-4.94-244.50-4.72Q-244.66-4.50-244.69-4.25Q-244.72-4.00-244.72-3.77L-244.72-3.77Q-244.69-3.30-244.54-3.04Q-244.39-2.77-244.17-2.66Q-243.96-2.54-243.68-2.52Q-243.40-2.51-243.13-2.51L-243.13-2.51L-231.33-2.51Q-228.40-2.51-226.35-1.45Q-224.30-0.40-223.04 1.20Q-221.78 2.79-221.21 4.67Q-220.63 6.54-220.63 8.16ZM-185.30-10.48L-185.30-10.48Q-184.83-9.39-185.05-8.28Q-185.27-7.17-186.06-6.35L-186.06-6.35L-203.67 11.23L-185.36 11.23L-185.36 18.85L-212.84 18.85Q-214.01 18.85-214.97 18.19Q-215.92 17.53-216.39 16.50L-216.39 16.50Q-216.83 15.42-216.61 14.29Q-216.39 13.16-215.54 12.32L-215.54 12.32L-198.02-5.20L-216.33-5.20L-216.33-12.82L-188.79-12.82Q-187.65-12.82-186.69-12.21Q-185.74-11.59-185.30-10.48ZM-121.26 11.23L-121.26 18.85L-148.74 18.85Q-149.79 18.85-151.01 18.60Q-152.23 18.35-153.41 17.82Q-154.60 17.30-155.68 16.46Q-156.77 15.63-157.60 14.44Q-158.44 13.25-158.94 11.69Q-159.43 10.12-159.43 8.16L-159.43 8.16L-159.43-12.47Q-159.43-13.52-159.18-14.74Q-158.94-15.96-158.41-17.14Q-157.88-18.33-157.03-19.41Q-156.18-20.50-155.00-21.33Q-153.81-22.17-152.26-22.67Q-150.70-23.16-148.74-23.16L-148.74-23.16L-121.26-23.16L-121.26-15.55L-148.74-15.55Q-150.23-15.55-151.03-14.76Q-151.82-13.96-151.82-12.41L-151.82-12.41L-151.82 8.16Q-151.82 9.62-151.01 10.43Q-150.21 11.23-148.74 11.23L-148.74 11.23L-121.26 11.23ZM-80.68-12.82L-80.68 15.01Q-80.68 15.83-80.98 16.53Q-81.27 17.24-81.78 17.75Q-82.29 18.26-82.98 18.56Q-83.67 18.85-84.46 18.85L-84.46 18.85L-101.69 18.85Q-103.10 18.85-104.69 18.53Q-106.29 18.20-107.84 17.49Q-109.39 16.77-110.84 15.67Q-112.29 14.57-113.38 13.00Q-114.46 11.44-115.12 9.39Q-115.78 7.33-115.78 4.76L-115.78 4.76L-115.78-12.82L-108.16-12.82L-108.16 4.76Q-108.16 6.25-107.65 7.44Q-107.14 8.62-106.26 9.47Q-105.38 10.32-104.19 10.78Q-103.01 11.23-101.63 11.23L-101.63 11.23L-88.30 11.23L-88.30-12.82L-80.68-12.82ZM-42.92 8.16L-42.92 8.16Q-42.92 10.12-43.42 11.69Q-43.92 13.25-44.74 14.44Q-45.56 15.63-46.64 16.46Q-47.72 17.30-48.91 17.82Q-50.10 18.35-51.31 18.60Q-52.53 18.85-53.61 18.85L-53.61 18.85L-74.24 18.85L-74.24 11.23L-53.67 11.23Q-52.12 11.23-51.33 10.44Q-50.54 9.65-50.54 8.16L-50.54 8.16Q-50.68 5.11-53.61 5.11L-53.61 5.11L-65.42 5.11Q-67.94 5.11-69.70 4.23Q-71.46 3.35-72.55 2.03Q-73.65 0.71-74.14-0.81Q-74.62-2.33-74.62-3.65L-74.62-3.65Q-74.62-6.20-73.71-7.94Q-72.80-9.69-71.43-10.77Q-70.05-11.85-68.44-12.34Q-66.83-12.82-65.42-12.82L-65.42-12.82L-46.70-12.82L-46.70-5.20L-65.36-5.20Q-65.95-5.20-66.28-5.07Q-66.62-4.94-66.78-4.72Q-66.94-4.50-66.97-4.25Q-67.00-4.00-67.00-3.77L-67.00-3.77Q-66.97-3.30-66.83-3.04Q-66.68-2.77-66.46-2.66Q-66.24-2.54-65.96-2.52Q-65.68-2.51-65.42-2.51L-65.42-2.51L-53.61-2.51Q-50.68-2.51-48.63-1.45Q-46.58-0.40-45.32 1.20Q-44.06 2.79-43.49 4.67Q-42.92 6.54-42.92 8.16ZM-9.32-12.82L-9.32-5.20L-22.62-5.20L-22.62 18.85L-30.32 18.85L-30.32-5.20L-40.22-5.20L-40.22-12.82L-30.32-12.82L-30.32-23.16L-22.62-23.16L-22.62-12.82L-9.32-12.82ZM30.03-2.16L30.03 8.16Q30.03 10.12 29.53 11.69Q29.03 13.25 28.21 14.44Q27.39 15.63 26.31 16.46Q25.22 17.30 24.04 17.82Q22.85 18.35 21.64 18.60Q20.42 18.85 19.34 18.85L19.34 18.85L5.60 18.85Q4.01 18.85 2.14 18.29Q0.26 17.74-1.33 16.46Q-2.93 15.19-4.00 13.15Q-5.07 11.11-5.07 8.16L-5.07 8.16L-5.07-2.16Q-5.07-5.09-4.00-7.12Q-2.93-9.16-1.33-10.43Q0.26-11.71 2.14-12.26Q4.01-12.82 5.60-12.82L5.60-12.82L19.34-12.82Q22.27-12.82 24.32-11.77Q26.37-10.71 27.63-9.12Q28.89-7.52 29.46-5.64Q30.03-3.77 30.03-2.16L30.03-2.16ZM22.41 8.16L22.41-2.10Q22.41-3.68 21.62-4.44Q20.83-5.20 19.34-5.20L19.34-5.20L5.65-5.20Q4.13-5.20 3.34-4.43Q2.55-3.65 2.55-2.16L2.55-2.16L2.55 8.16Q2.55 9.65 3.34 10.44Q4.13 11.23 5.65 11.23L5.65 11.23L19.34 11.23Q20.89 11.23 21.65 10.44Q22.41 9.65 22.41 8.16L22.41 8.16ZM64.78-2.16L64.78 18.85L57.16 18.85L57.16-2.16Q57.16-3.65 56.37-4.43Q55.58-5.20 54.02-5.20L54.02-5.20L44.12-5.20L44.12 18.85L36.50 18.85L36.50-9.04Q36.50-9.83 36.80-10.52Q37.09-11.21 37.62-11.72Q38.14-12.24 38.85-12.53Q39.55-12.82 40.34-12.82L40.34-12.82L54.08-12.82Q55.66-12.82 57.48-12.26Q59.30-11.71 60.94-10.48L60.94-10.48L60.94-12.82L71.25-12.82Q72.33-12.82 73.54-12.57Q74.74-12.32 75.92-11.80Q77.11-11.27 78.19-10.43Q79.28-9.60 80.10-8.41Q80.92-7.23 81.42-5.67Q81.91-4.12 81.91-2.16L81.91-2.16L81.91 18.85L74.30 18.85L74.30-2.16Q74.30-3.65 73.55-4.43Q72.80-5.20 71.25-5.20L71.25-5.20L64.39-5.20Q64.78-3.80 64.78-2.16L64.78-2.16ZM116.95-23.16L116.95-6.00L143.70-6.00L143.70-23.16L151.32-23.16L151.32 18.85L143.70 18.85L143.70 1.68L116.95 1.68L116.95 18.85L109.34 18.85L109.34-23.16L116.95-23.16ZM191.92-2.33L191.92 8.36Q191.92 9.94 191.37 11.77Q190.81 13.60 189.57 15.17Q188.32 16.74 186.31 17.79Q184.31 18.85 181.44 18.85L181.44 18.85L167.70 18.85Q166.11 18.85 164.28 18.29Q162.45 17.74 160.88 16.49Q159.32 15.24 158.26 13.24Q157.21 11.23 157.21 8.36L157.21 8.36Q157.21 6.78 157.76 4.93Q158.32 3.09 159.57 1.52Q160.81-0.05 162.82-1.10Q164.82-2.16 167.70-2.16L167.70-2.16L181.44-2.16L181.44 5.11L167.70 5.11Q166.14 5.11 165.29 6.06Q164.44 7.01 164.44 8.42L164.44 8.42Q164.44 9.91 165.42 10.75Q166.41 11.58 167.75 11.58L167.75 11.58L181.44 11.58Q182.99 11.58 183.84 10.65Q184.69 9.71 184.69 8.30L184.69 8.30L184.69-2.33Q184.69-3.83 183.76-4.71Q182.84-5.59 181.44-5.59L181.44-5.59L164.71-5.59L164.71-12.82L181.44-12.82Q183.02-12.82 184.85-12.26Q186.68-11.71 188.25-10.46Q189.81-9.22 190.87-7.21Q191.92-5.20 191.92-2.33L191.92-2.33ZM229.10 11.23L229.10 18.85L208.45 18.85Q206.87 18.85 204.99 18.29Q203.12 17.74 201.52 16.46Q199.92 15.19 198.85 13.15Q197.78 11.11 197.78 8.16L197.78 8.16L197.78-2.16Q197.78-3.24 198.03-4.44Q198.28-5.64 198.81-6.83Q199.34-8.02 200.17-9.10Q201.01-10.18 202.19-11.01Q203.38-11.83 204.93-12.32Q206.48-12.82 208.45-12.82L208.45-12.82L229.10-12.82L229.10-5.20L208.45-5.20Q206.95-5.20 206.18-4.44Q205.40-3.68 205.40-2.10L205.40-2.10L205.40 8.16Q205.40 9.65 206.19 10.44Q206.98 11.23 208.51 11.23L208.51 11.23L229.10 11.23ZM254.68 1.56L272.61 18.85L261.62 18.85L246.27 4.02Q244.98 2.85 245.07 1.09L245.07 1.09Q245.13 0.27 245.49-0.44Q245.86-1.16 246.50-1.66L246.50-1.66L260.42-12.88L272.61-12.88L254.68 1.56ZM243.13-26.21L243.13 18.85L235.52 18.85L235.52-26.21L243.13-26.21ZM309.93-2.33L309.93-2.33Q309.93-0.75 309.38 1.08Q308.82 2.91 307.57 4.48Q306.33 6.05 304.32 7.10Q302.31 8.16 299.44 8.16L299.44 8.16L285.70 8.16L285.70 0.92L299.44 0.92Q301.00 0.92 301.85-0.03Q302.70-0.99 302.70-2.39L302.70-2.39Q302.70-3.89 301.74-4.74Q300.79-5.59 299.44-5.59L299.44-5.59L285.70-5.59Q284.15-5.59 283.30-4.63Q282.45-3.68 282.45-2.27L282.45-2.27L282.45 8.36Q282.45 9.88 283.40 10.73Q284.36 11.58 285.76 11.58L285.76 11.58L299.44 11.58L299.44 18.85L285.70 18.85Q284.12 18.85 282.29 18.29Q280.46 17.74 278.89 16.49Q277.32 15.24 276.27 13.24Q275.21 11.23 275.21 8.36L275.21 8.36L275.21-2.33Q275.21-3.92 275.77-5.75Q276.33-7.58 277.57-9.14Q278.82-10.71 280.83-11.77Q282.83-12.82 285.70-12.82L285.70-12.82L299.44-12.82Q301.03-12.82 302.86-12.26Q304.69-11.71 306.25-10.46Q307.82-9.22 308.88-7.21Q309.93-5.20 309.93-2.33ZM342.77-12.82L342.77-5.20L325.63-5.20Q324.08-5.20 323.29-4.43Q322.50-3.65 322.50-2.16L322.50-2.16L322.50 18.85L314.88 18.85L314.88-2.16Q314.88-4.12 315.38-5.67Q315.88-7.23 316.71-8.41Q317.55-9.60 318.63-10.43Q319.72-11.27 320.90-11.80Q322.09-12.32 323.31-12.57Q324.52-12.82 325.58-12.82L325.58-12.82L342.77-12.82ZM408.90-19.33L408.90 18.85L401.28 18.85L401.28 8.54L374.50 8.54L374.50 18.85L366.88 18.85L366.88-2.16Q366.88-6.76 368.47-10.62Q370.05-14.49 372.86-17.27Q375.67-20.06 379.51-21.61Q383.35-23.16 387.89-23.16L387.89-23.16L405.06-23.16Q405.85-23.16 406.55-22.87Q407.26-22.58 407.78-22.05Q408.31-21.52 408.60-20.82Q408.90-20.12 408.90-19.33L408.90-19.33ZM374.50-2.16L374.50 0.92L401.28 0.92L401.28-15.55L387.89-15.55Q387.54-15.55 386.41-15.44Q385.28-15.34 383.80-14.93Q382.32-14.52 380.68-13.67Q379.04-12.82 377.67-11.33Q376.29-9.83 375.40-7.59Q374.50-5.35 374.50-2.16L374.50-2.16ZM451.67-2.16L451.67 8.16Q451.67 10.12 451.17 11.69Q450.67 13.25 449.85 14.44Q449.03 15.63 447.95 16.46Q446.87 17.30 445.68 17.82Q444.49 18.35 443.29 18.60Q442.09 18.85 441.01 18.85L441.01 18.85L427.27 18.85L427.27 11.23L441.01 11.23Q442.53 11.23 443.29 10.44Q444.05 9.65 444.05 8.16L444.05 8.16L444.05-2.10Q444.05-3.68 443.28-4.44Q442.50-5.20 441.01-5.20L441.01-5.20L427.32-5.20Q425.77-5.20 424.98-4.43Q424.19-3.65 424.19-2.16L424.19-2.16L424.19 28.75L416.57 28.75L416.57-2.16Q416.57-4.12 417.07-5.67Q417.57-7.23 418.40-8.41Q419.24-9.60 420.32-10.43Q421.41-11.27 422.59-11.80Q423.78-12.32 425.00-12.57Q426.21-12.82 427.27-12.82L427.27-12.82L441.01-12.82Q442.97-12.82 444.52-12.32Q446.07-11.83 447.26-11.01Q448.45-10.18 449.28-9.10Q450.12-8.02 450.64-6.83Q451.17-5.64 451.42-4.44Q451.67-3.24 451.67-2.16L451.67-2.16ZM493.10-2.16L493.10 8.16Q493.10 10.12 492.60 11.69Q492.10 13.25 491.28 14.44Q490.46 15.63 489.38 16.46Q488.29 17.30 487.10 17.82Q485.92 18.35 484.72 18.60Q483.52 18.85 482.43 18.85L482.43 18.85L468.69 18.85L468.69 11.23L482.43 11.23Q483.96 11.23 484.72 10.44Q485.48 9.65 485.48 8.16L485.48 8.16L485.48-2.10Q485.48-3.68 484.70-4.44Q483.93-5.20 482.43-5.20L482.43-5.20L468.75-5.20Q467.20-5.20 466.41-4.43Q465.62-3.65 465.62-2.16L465.62-2.16L465.62 28.75L458.00 28.75L458.00-2.16Q458.00-4.12 458.50-5.67Q458.99-7.23 459.83-8.41Q460.66-9.60 461.75-10.43Q462.83-11.27 464.02-11.80Q465.21-12.32 466.42-12.57Q467.64-12.82 468.69-12.82L468.69-12.82L482.43-12.82Q484.39-12.82 485.95-12.32Q487.50-11.83 488.69-11.01Q489.87-10.18 490.71-9.10Q491.54-8.02 492.07-6.83Q492.60-5.64 492.85-4.44Q493.10-3.24 493.10-2.16L493.10-2.16Z"/></g>
</svg>